<svg width="167" height="26" viewBox="0 0 167 26" fill="none" xmlns="http://www.w3.org/2000/svg">
<g clip-path="url(#clip0_832_2444)">
<path d="M140.409 4.23682H136.678C135.03 4.31479 133.683 4.97868 133.293 6.34782C133.091 7.06192 132.979 7.84604 132.82 8.58629C132.014 12.35 131.299 16.2172 130.527 19.9057H159.572C161.818 19.9057 163.359 19.4312 163.776 17.6492C163.97 16.8212 164.155 15.8835 164.34 14.9739C165.062 11.4276 165.785 7.88134 166.524 4.23682H140.409Z" fill="#B82126"/>
<path d="M155.394 13.5982C154.991 13.9926 153.861 14.1046 153.976 13.162C154.072 12.379 154.925 12.2127 155.848 12.3257C155.78 12.754 155.701 13.2977 155.394 13.5983M154.122 10.5444C154.083 10.7604 154.024 10.9558 153.976 11.1624C154.437 11.0468 155.874 10.6923 156.012 11.3078C156.058 11.5124 155.979 11.7297 155.921 11.8896C154.622 11.7665 153.564 11.9824 153.285 12.9075C153.099 13.5272 153.306 14.137 153.704 14.3073C154.469 14.6349 155.399 14.2595 155.721 13.7437C155.688 13.9223 155.656 14.1027 155.667 14.3255H156.339C156.346 13.6813 156.44 13.1599 156.539 12.5803C156.624 12.0868 156.783 11.5981 156.757 11.1625C156.7 10.1648 155.047 10.5176 154.122 10.5444ZM160.866 13.9073C160.339 13.9186 160.078 13.593 160.066 13.0531C160.045 12.1074 160.46 11.0568 161.302 10.9626C161.694 10.9187 161.978 11.0099 162.265 11.108C162.002 12.1702 162.097 13.8809 160.866 13.9073ZM162.611 8.90852C162.544 9.49585 162.454 10.0608 162.338 10.599C160.421 9.99214 159.245 11.4028 159.266 13.1439C159.27 13.4807 159.328 13.8146 159.539 14.0527C159.902 14.4633 160.941 14.5615 161.465 14.2164C161.567 14.1496 161.671 14.0281 161.738 13.9438C161.789 13.8803 161.869 13.7141 161.883 13.7619C161.856 13.9464 161.815 14.1173 161.811 14.3255H162.52C162.656 12.3656 163.079 10.6915 163.392 8.90845L162.611 8.90852ZM142.597 13.6164C142.179 14.0593 141.151 14.0525 141.07 13.3074C141.035 12.9831 141.156 12.6431 141.215 12.3076C141.276 11.968 141.319 11.6422 141.379 11.3441C141.791 10.8412 143.001 10.7805 143.124 11.6168C143.231 12.343 142.943 13.2496 142.597 13.6164ZM143.215 10.5443C142.553 10.2959 141.747 10.5925 141.398 10.8747C141.399 10.8871 141.389 10.8888 141.379 10.8897C141.385 10.8847 141.391 10.8797 141.398 10.8747C141.398 10.8737 141.397 10.8726 141.397 10.8716C141.403 10.7502 141.446 10.6657 141.452 10.5443H140.779C140.499 12.4091 140.167 14.2216 139.816 16.0158H140.597C140.711 15.317 140.785 14.5799 140.943 13.9254C141.121 14.6137 142.287 14.4822 142.779 14.2163C143.794 13.6675 144.576 11.0557 143.215 10.5443ZM146.923 11.8531H145.087C145.145 11.4311 145.525 10.9671 146.123 10.9443C146.687 10.9227 147.09 11.151 146.923 11.8531ZM146.178 10.4716C145.613 10.5151 145.136 10.6776 144.797 11.0351C144.38 11.4736 144.043 12.4429 144.142 13.3256C144.283 14.5849 145.851 14.5397 147.105 14.2344C147.126 14.0134 147.18 13.8245 147.214 13.6164C146.697 13.8098 145.8 14.0796 145.269 13.7437C144.868 13.49 144.866 12.8476 144.996 12.2894C145.839 12.2626 146.715 12.2677 147.559 12.2894C147.613 11.8937 147.766 11.4623 147.632 11.0716C147.455 10.5556 146.822 10.4221 146.178 10.4716ZM139.307 10.5443C139.286 10.5474 139.287 10.5732 139.289 10.5988C139.116 11.8869 138.883 13.1142 138.634 14.3254H139.416C139.604 13.0286 139.819 11.7593 140.088 10.5443H139.307ZM159.702 10.5625C159.011 10.2171 158.436 10.7967 158.212 11.1442C158.276 10.9659 158.279 10.7272 158.339 10.5443H157.648C157.462 11.8427 157.237 13.1026 156.976 14.3254H157.775C157.78 13.8242 157.879 13.4536 157.957 12.962C158.124 11.9126 158.37 10.7619 159.593 11.1079C159.634 10.9304 159.651 10.7291 159.702 10.5625ZM150.922 13.4346C150.85 13.2485 150.832 12.9411 150.85 12.7075C150.89 12.1822 151.081 11.5427 151.377 11.2533C151.784 10.8537 152.589 10.9198 153.231 11.1442C153.251 10.9278 153.294 10.7349 153.322 10.5262C152.269 10.3543 151.27 10.4612 150.741 11.0169C150.222 11.561 149.882 12.8114 150.123 13.5982C150.404 14.5189 151.665 14.5689 152.686 14.2163C152.731 14.0312 152.755 13.8249 152.795 13.6346C152.237 13.9244 151.17 14.0751 150.922 13.4346ZM150.486 10.5443C149.793 10.2644 149.248 10.7375 148.996 11.1806C149.053 10.9835 149.077 10.7526 149.123 10.5443H148.432C148.263 11.854 148.014 13.0836 147.778 14.3254H148.559C148.669 13.5882 148.716 12.5946 148.959 11.8895C149.153 11.3261 149.662 10.846 150.395 11.1079C150.406 10.9 150.465 10.7413 150.486 10.5443ZM137.889 9.01742C137.777 9.74192 137.651 10.4524 137.525 11.1624C136.716 11.1709 135.889 11.2024 135.108 11.1441C135.255 10.4496 135.361 9.7131 135.508 9.01735H134.635C134.323 10.7896 134.039 12.5898 133.69 14.3255H134.581C134.72 13.435 134.851 12.5356 135.035 11.6897C135.794 11.6709 136.705 11.6384 137.435 11.7078C137.284 12.5874 137.102 13.4356 136.962 14.3255H137.853C138.139 12.5272 138.44 10.7444 138.798 9.01749L137.889 9.01742ZM140.107 9.81722C140.262 9.70994 140.463 9.22096 140.234 9.01742C140.161 8.95295 140.04 8.93425 139.87 8.96293C139.713 8.98944 139.623 9.0428 139.561 9.12647C139.462 9.26096 139.372 9.66656 139.525 9.81722C139.674 9.96395 140.007 9.88542 140.107 9.81722Z" fill="white"/>
</g>
<g clip-path="url(#clip1_832_2444)">
<path d="M56.8235 4.4153L52.7261 14.19H50.0531L48.0367 6.38886C47.9145 5.90953 47.8082 5.73312 47.4362 5.53044C46.8282 5.20013 45.824 4.89121 44.9414 4.69903L45.0009 4.4153H49.3045C49.8522 4.4153 50.3454 4.77996 50.4708 5.41137L51.5362 11.0681L54.1664 4.4153H56.8235ZM60.4371 4.4153L58.3463 14.19H55.8173L57.9083 4.4153H60.4371ZM67.2972 10.9986C67.3077 8.41927 63.7307 8.27612 63.7541 7.12369C63.7626 6.77333 64.0964 6.40035 64.8269 6.305C65.1888 6.25818 66.1885 6.22089 67.3209 6.74264L67.7639 4.66859C67.1555 4.44855 66.3725 4.23682 65.3985 4.23682C62.8986 4.23682 61.14 5.56467 61.126 7.46757C61.1096 8.87513 62.3821 9.65959 63.339 10.1284C64.3247 10.6071 64.6553 10.9148 64.6507 11.3427C64.6437 11.9985 63.8635 12.2889 63.1382 12.2996C61.8663 12.3198 61.129 11.9559 60.5409 11.6819L60.0819 13.8247C60.6735 14.0958 61.764 14.3314 62.8934 14.3434C65.5511 14.3434 67.2893 13.0307 67.2972 10.9986ZM73.8985 14.1901H76.2367L74.194 4.4153H72.0367C71.5501 4.4153 71.1412 4.69769 70.9598 5.13179L67.1653 14.19H69.8208L70.3476 12.7298H73.592L73.8985 14.1901ZM71.0758 10.7269L72.4073 7.05621L73.1722 10.7269H71.0758ZM63.6737 16.8806H62.6461V17.837H63.7955V18.1245H62.2999V15.4714H63.7366V15.7589H62.6461V16.5971H63.6736L63.6737 16.8806ZM64.3264 15.3298H64.6726V18.1244H64.3264V15.3298ZM65.5462 17.2348C65.554 17.7033 65.8494 17.8961 66.1995 17.8961C66.4477 17.8961 66.6011 17.8529 66.7272 17.7978L66.7901 18.0459C66.6681 18.1009 66.4556 18.1678 66.1523 18.1678C65.566 18.1678 65.2158 17.7782 65.2158 17.2034C65.2158 16.6288 65.554 16.1799 66.1092 16.1799C66.7351 16.1799 66.8964 16.7233 66.8964 17.0735C66.8964 17.1443 66.8924 17.1954 66.8844 17.2349L65.5462 17.2348ZM66.5617 16.9869C66.5657 16.7705 66.4713 16.4279 66.0815 16.4279C65.7273 16.4279 65.5776 16.7468 65.55 16.9869H66.5617ZM68.781 18.0575C68.6905 18.1009 68.4897 18.1679 68.2339 18.1679C67.6593 18.1679 67.2853 17.7782 67.2853 17.1955C67.2853 16.609 67.6866 16.18 68.3086 16.18C68.5133 16.18 68.6943 16.231 68.7888 16.2823L68.7103 16.546C68.6273 16.5028 68.4975 16.4553 68.3086 16.4553C67.8716 16.4553 67.6357 16.7821 67.6357 17.176C67.6357 17.6167 67.919 17.8883 68.2969 17.8883C68.4937 17.8883 68.6235 17.8411 68.7219 17.7978L68.781 18.0575ZM69.7526 15.7627V16.2193H70.2485V16.4828H69.7526V17.5103C69.7526 17.7467 69.8196 17.8804 70.0124 17.8804C70.1068 17.8804 70.162 17.8727 70.2132 17.8566L70.229 18.1207C70.162 18.1442 70.0558 18.1678 69.9219 18.1678C69.7604 18.1678 69.6305 18.1126 69.548 18.0223C69.4535 17.9158 69.4141 17.7467 69.4141 17.5223V16.4828H69.1188V16.2193H69.4141V15.865L69.7526 15.7627ZM70.7322 16.8138C70.7322 16.5893 70.728 16.3965 70.7164 16.2193H71.0196L71.0355 16.597H71.047C71.1338 16.3414 71.3461 16.1799 71.5783 16.1799C71.6138 16.1799 71.6415 16.1839 71.673 16.1877V16.5146C71.6376 16.5065 71.6022 16.5065 71.5547 16.5065C71.3109 16.5065 71.1374 16.6876 71.0904 16.9476C71.0822 17.001 71.0783 17.055 71.0785 17.109V18.1246H70.7322V16.8138ZM73.8019 17.156C73.8019 17.8607 73.3098 18.1678 72.8533 18.1678C72.3414 18.1678 71.9401 17.7898 71.9401 17.1877C71.9401 16.5539 72.3613 16.18 72.8848 16.18C73.4319 16.18 73.8019 16.5772 73.8019 17.156ZM72.2943 17.176C72.2943 17.5932 72.5304 17.9082 72.8689 17.9082C73.1998 17.9082 73.4475 17.597 73.4475 17.168C73.4475 16.8453 73.2862 16.4397 72.8768 16.4397C72.4715 16.4397 72.2943 16.8178 72.2943 17.176ZM74.3327 16.735C74.3327 16.5344 74.3286 16.3768 74.3168 16.2195H74.6239L74.6436 16.5344H74.6514C74.7459 16.3572 74.9663 16.1801 75.2813 16.1801C75.5448 16.1801 75.9544 16.3376 75.9544 16.9908V18.1246H75.608V17.0263C75.608 16.7195 75.4938 16.4634 75.1672 16.4634C74.9428 16.4634 74.7655 16.6249 74.7028 16.8177C74.6869 16.8611 74.6791 16.92 74.6791 16.9792V18.1246H74.3327V16.735Z" fill="#1A1F71"/>
</g>
<g clip-path="url(#clip2_832_2444)">
<path d="M5.61341 25.3973V23.8207C5.61341 23.2162 5.24543 22.8221 4.61471 22.8221C4.29941 22.8221 3.95777 22.9272 3.72124 23.2689C3.53737 22.9798 3.27462 22.8221 2.88043 22.8221C2.61756 22.8221 2.35493 22.9009 2.14461 23.19V22.8747H1.59277V25.3973H2.14461V24.0046C2.14461 23.558 2.38115 23.3476 2.74912 23.3476C3.11685 23.3476 3.30096 23.5842 3.30096 24.0046V25.3973H3.85279V24.0046C3.85279 23.558 4.11543 23.3476 4.45706 23.3476C4.82503 23.3476 5.0089 23.5842 5.0089 24.0046V25.3973H5.61341ZM13.7857 22.8747H12.8924V22.1126H12.3406V22.8747H11.8413V23.3738H12.3404V24.5302C12.3404 25.1084 12.577 25.4499 13.2077 25.4499C13.4442 25.4499 13.7069 25.3711 13.891 25.266L13.7332 24.7929C13.5755 24.898 13.3917 24.9244 13.2602 24.9244C12.9975 24.9244 12.8924 24.7667 12.8924 24.5039V23.3738H13.7857V22.8747ZM18.4633 22.822C18.148 22.822 17.9378 22.9798 17.8064 23.19V22.8747H17.2545V25.3973H17.8064V23.9784C17.8064 23.5579 17.9902 23.3214 18.3319 23.3214C18.437 23.3214 18.5684 23.3477 18.6735 23.374L18.8312 22.8485C18.7261 22.8221 18.5684 22.8221 18.4633 22.8221M11.3945 23.085C11.1317 22.901 10.7638 22.8222 10.3696 22.8222C9.73902 22.8222 9.31862 23.1375 9.31862 23.6368C9.31862 24.0574 9.63392 24.2938 10.1858 24.3727L10.4485 24.399C10.7376 24.4514 10.8952 24.5303 10.8952 24.6617C10.8952 24.8456 10.685 24.977 10.3171 24.977C9.94922 24.977 9.66013 24.8456 9.47615 24.7143L9.2134 25.1347C9.50248 25.3449 9.89667 25.45 10.2907 25.45C11.0266 25.45 11.4471 25.1085 11.4471 24.6354C11.4471 24.1887 11.1054 23.9521 10.5798 23.8734L10.3171 23.847C10.0805 23.8207 9.89667 23.7683 9.89667 23.6106C9.89667 23.4266 10.0805 23.3215 10.3696 23.3215C10.685 23.3215 11.0003 23.4528 11.158 23.5317L11.3945 23.085ZM26.0577 22.8222C25.7423 22.8222 25.5321 22.9799 25.4007 23.1901V22.8748H24.8488V25.3974H25.4007V23.9785C25.4007 23.5581 25.5847 23.3215 25.9262 23.3215C26.0314 23.3215 26.1628 23.3479 26.2679 23.3741L26.4256 22.8486C26.3205 22.8222 26.1628 22.8222 26.0577 22.8222ZM19.0152 24.1361C19.0152 24.8982 19.5407 25.45 20.3554 25.45C20.7232 25.45 20.986 25.3712 21.2487 25.161L20.986 24.7143C20.7758 24.8719 20.5656 24.9507 20.329 24.9507C19.8823 24.9507 19.567 24.6354 19.567 24.1361C19.567 23.6632 19.8823 23.3477 20.329 23.3215C20.5656 23.3215 20.7758 23.4003 20.986 23.5581L21.2487 23.1113C20.986 22.901 20.7232 22.8222 20.3554 22.8222C19.5407 22.8222 19.0152 23.3741 19.0152 24.1361ZM24.1131 24.1361V22.8748H23.5613V23.1901C23.3773 22.9537 23.1146 22.8222 22.7729 22.8222C22.0634 22.8222 21.5116 23.3741 21.5116 24.1361C21.5116 24.8982 22.0634 25.45 22.7729 25.45C23.1408 25.45 23.4036 25.3187 23.5613 25.0821V25.3974H24.1131V24.1361ZM22.0896 24.1361C22.0896 23.6894 22.3787 23.3215 22.8517 23.3215C23.2984 23.3215 23.6138 23.6632 23.6138 24.1361C23.6138 24.5829 23.2984 24.9507 22.8517 24.9507C22.3787 24.9244 22.0896 24.5829 22.0896 24.1361ZM15.4939 22.8222C14.7581 22.8222 14.2325 23.3477 14.2325 24.1361C14.2325 24.9245 14.758 25.45 15.5201 25.45C15.888 25.45 16.256 25.3449 16.5451 25.1085L16.2822 24.7143C16.072 24.8719 15.8092 24.977 15.5465 24.977C15.2048 24.977 14.8632 24.8194 14.7843 24.3725H16.6502V24.1625C16.6765 23.3477 16.2035 22.8222 15.4939 22.8222ZM15.4938 23.2952C15.8353 23.2952 16.072 23.5055 16.1244 23.8997H14.8105C14.8631 23.5581 15.0996 23.2952 15.4938 23.2952ZM29.1846 24.1361V21.8762H28.6328V23.1901C28.4488 22.9537 28.1861 22.8222 27.8444 22.8222C27.1349 22.8222 26.5831 23.3741 26.5831 24.1361C26.5831 24.8982 27.1349 25.45 27.8444 25.45C28.2124 25.45 28.4752 25.3187 28.6328 25.0821V25.3974H29.1846V24.1361ZM27.1613 24.1361C27.1613 23.6894 27.4503 23.3215 27.9233 23.3215C28.3701 23.3215 28.6854 23.6632 28.6854 24.1361C28.6854 24.5829 28.3701 24.9507 27.9233 24.9507C27.4503 24.9244 27.1613 24.5829 27.1613 24.1361ZM8.71399 24.1361V22.8748H8.16215V23.1901C7.97817 22.9537 7.71542 22.8222 7.37378 22.8222C6.66429 22.8222 6.11245 23.3741 6.11245 24.1361C6.11245 24.8982 6.66429 25.45 7.37378 25.45C7.74175 25.45 8.0045 25.3187 8.16215 25.0821V25.3974H8.71399V24.1361ZM6.66429 24.1361C6.66429 23.6894 6.95338 23.3215 7.42633 23.3215C7.87307 23.3215 8.18849 23.6632 8.18849 24.1361C8.18849 24.5829 7.87307 24.9507 7.42633 24.9507C6.95338 24.9244 6.66429 24.5829 6.66429 24.1361Z" fill="black"/>
<path d="M11.2109 3.71802H19.4885V18.5914H11.2109V3.71802Z" fill="#FF5F00"/>
<path d="M11.7363 11.1549C11.7363 8.13301 13.1553 5.45259 15.3363 3.71819C13.7334 2.45686 11.7101 1.69482 9.50272 1.69482C4.2732 1.69482 0.0424805 5.92554 0.0424805 11.1549C0.0424805 16.3842 4.2732 20.6151 9.5026 20.6151C11.71 20.6151 13.7333 19.853 15.3363 18.5916C13.1553 16.8835 11.7363 14.1769 11.7363 11.1549Z" fill="#EB001B"/>
<path d="M30.6556 11.1549C30.6556 16.3842 26.4249 20.6151 21.1955 20.6151C18.9881 20.6151 16.9648 19.853 15.3618 18.5916C17.5692 16.8573 18.9619 14.1769 18.9619 11.1549C18.9619 8.13301 17.5428 5.45259 15.3618 3.71819C16.9647 2.45686 18.9881 1.69482 21.1955 1.69482C26.4249 1.69482 30.6556 5.95187 30.6556 11.1549Z" fill="#F79E1B"/>
</g>
<g clip-path="url(#clip3_832_2444)">
<path d="M116.381 13.9156V0H90.6685V25.7123H116.381V18.2105C116.324 18.2105 116.381 13.9156 116.381 13.9156Z" fill="#006FCF"/>
<path d="M113.231 12.4834H115.178V7.95947H113.059V8.58932L112.658 7.95947H110.826V8.76117L110.482 7.95947H107.104C106.989 7.95947 106.875 8.01672 106.76 8.01672C106.646 8.01672 106.588 8.07397 106.474 8.13122C106.359 8.18847 106.302 8.18847 106.187 8.24572V7.95947H96.5095L96.2232 8.70392L95.9368 7.95947H93.6463V8.76117L93.3028 7.95947H91.4701L90.6685 9.90648V12.4834H91.9856L92.2146 11.8535H92.6727L92.9018 12.4834H102.981V11.9107L103.381 12.4834H106.187V12.1399C106.245 12.1972 106.359 12.1972 106.416 12.2544C106.474 12.3117 106.588 12.3117 106.646 12.3689C106.76 12.4262 106.875 12.4262 106.989 12.4262H109.051L109.28 11.7962H109.738L109.967 12.4262H112.773V11.8535L113.231 12.4834ZM116.381 18.21V13.9723H100.633L100.232 14.545L99.831 13.9723H95.2497V18.4963H99.831L100.232 17.9237L100.633 18.4963H103.496V17.5228H103.381C103.782 17.5228 104.126 17.4656 104.412 17.3511V18.5536H106.474V17.9809L106.875 18.5536H115.407C115.751 18.4391 116.094 18.3818 116.381 18.21Z" fill="white"/>
<path d="M115.407 17.1223H113.861V17.7521H115.35C115.98 17.7521 116.381 17.3514 116.381 16.7787C116.381 16.206 116.037 15.9196 115.465 15.9196H114.777C114.606 15.9196 114.491 15.8051 114.491 15.6334C114.491 15.4616 114.606 15.347 114.777 15.347H116.094L116.381 14.7171H114.835C114.205 14.7171 113.804 15.1179 113.804 15.6334C113.804 16.206 114.147 16.4923 114.72 16.4923H115.407C115.579 16.4923 115.694 16.6068 115.694 16.7786C115.751 17.0077 115.636 17.1223 115.407 17.1223ZM112.601 17.1223H111.055V17.7521H112.544C113.174 17.7521 113.575 17.3514 113.575 16.7787C113.575 16.206 113.231 15.9196 112.658 15.9196H111.971C111.8 15.9196 111.685 15.8051 111.685 15.6334C111.685 15.4616 111.8 15.347 111.971 15.347H113.288L113.575 14.7171H112.029C111.399 14.7171 110.998 15.1179 110.998 15.6334C110.998 16.206 111.341 16.4923 111.914 16.4923H112.601C112.773 16.4923 112.887 16.6068 112.887 16.7786C112.945 17.0077 112.773 17.1223 112.601 17.1223M110.597 15.2898V14.6598H108.192V17.6949H110.597V17.0649H108.879V16.4351H110.54V15.8051H108.879V15.2324H110.597V15.2898ZM106.703 15.2898C106.989 15.2898 107.104 15.4615 107.104 15.6333C107.104 15.8051 106.989 15.9769 106.703 15.9769H105.844V15.2324L106.703 15.2898ZM105.844 16.6068H106.187L107.104 17.6949H107.963L106.932 16.5496C107.447 16.4351 107.734 16.0915 107.734 15.6334C107.734 15.0607 107.333 14.6598 106.703 14.6598H105.099V17.6949H105.787L105.844 16.6068ZM104.011 15.6906C104.011 15.9196 103.897 16.0914 103.611 16.0914H102.694V15.2898H103.553C103.839 15.2898 104.011 15.4615 104.011 15.6905M102.007 14.6597V17.6948H102.694V16.664H103.61C104.24 16.664 104.699 16.2632 104.699 15.6333C104.699 15.0606 104.298 14.6025 103.668 14.6025L102.007 14.6597ZM100.976 17.6948H101.835L100.633 16.1486L101.835 14.6597H100.976L100.232 15.6333L99.4874 14.6597H98.6284L99.831 16.1486L98.6284 17.6375H99.4874L100.232 16.664L100.976 17.6948ZM98.3993 15.2897V14.6597H95.9941V17.6948H98.3993V17.0648H96.6813V16.435H98.3421V15.805H96.6813V15.2323H98.3993V15.2897ZM112.315 9.90665L113.517 11.7392H114.377V8.7042H113.689V10.7085L113.518 10.4222L112.429 8.7042H111.513V11.7393H112.2V9.67765L112.315 9.90665ZM109.337 9.8494L109.566 9.21945L109.795 9.8494L110.081 10.5366H109.051L109.337 9.8494ZM110.54 11.7392H111.284L109.967 8.7041H109.051L107.734 11.7392H108.478L108.764 11.1092H110.253L110.54 11.7392ZM107.333 11.7392L107.619 11.1092H107.447C106.932 11.1092 106.646 10.7657 106.646 10.2503V10.193C106.646 9.67755 106.932 9.33395 107.447 9.33395H108.192V8.7041H107.39C106.474 8.7041 105.958 9.33395 105.958 10.193V10.2503C105.958 11.1665 106.474 11.7392 107.333 11.7392ZM104.756 11.7392H105.443V8.76145H104.756V11.7392ZM103.267 9.33395C103.553 9.33395 103.668 9.5057 103.668 9.67755C103.668 9.8493 103.553 10.0212 103.267 10.0212H102.408V9.2767L103.267 9.33395ZM102.408 10.6511H102.751L103.668 11.7392H104.527L103.496 10.5939C104.011 10.4794 104.298 10.1358 104.298 9.67755C104.298 9.10495 103.897 8.7041 103.267 8.7041H101.663V11.7392H102.351L102.408 10.6511ZM101.148 9.33395V8.7041H98.7429V11.7392H101.148V11.1092H99.4301V10.4794H101.091V9.8494H99.4301V9.2767H101.148V9.33395ZM95.9369 11.7392H96.5668L97.4258 9.2767V11.7392H98.113V8.7042H96.9677L96.2805 10.7657L95.5933 8.7042H94.448V11.7393H95.1352V9.2768L95.9369 11.7392ZM92.2146 9.8494L92.4436 9.21945L92.6727 9.8494L92.9591 10.5366H91.9283L92.2146 9.8494ZM93.4172 11.7392H94.1617L92.8446 8.7042H91.9856L90.6685 11.7393H91.4129L91.6992 11.1093H93.1882L93.4172 11.7392Z" fill="#006FCF"/>
</g>
<defs>
<clipPath id="clip0_832_2444">
<rect width="36.0599" height="15.6782" fill="white" transform="translate(130.495 4.23682)"/>
</clipPath>
<clipPath id="clip1_832_2444">
<rect width="31.3565" height="13.9362" fill="white" transform="translate(44.9106 4.23682)"/>
</clipPath>
<clipPath id="clip2_832_2444">
<rect width="30.7293" height="23.8212" fill="white" transform="translate(0 1.69482)"/>
</clipPath>
<clipPath id="clip3_832_2444">
<rect width="25.7123" height="25.7123" fill="white" transform="translate(90.6689)"/>
</clipPath>
</defs>
</svg>
