<svg width="39" height="39" viewBox="0 0 39 39" fill="none" xmlns="http://www.w3.org/2000/svg">
<path d="M32.1624 9.84888H6.68037C4.9212 9.84888 3.49512 11.275 3.49512 13.0341V25.7751C3.49512 27.5343 4.9212 28.9604 6.68037 28.9604H32.1624C33.9215 28.9604 35.3476 27.5343 35.3476 25.7751V13.0341C35.3476 11.275 33.9215 9.84888 32.1624 9.84888Z" stroke="#EF4444" stroke-width="3.18525" stroke-linecap="round" stroke-linejoin="round"/>
<path d="M19.4206 22.59C21.1798 22.59 22.6059 21.1639 22.6059 19.4047C22.6059 17.6456 21.1798 16.2195 19.4206 16.2195C17.6614 16.2195 16.2354 17.6456 16.2354 19.4047C16.2354 21.1639 17.6614 22.59 19.4206 22.59Z" stroke="#EF4444" stroke-width="3.18525" stroke-linecap="round" stroke-linejoin="round"/>
<path d="M9.86523 19.4048H9.88116M28.9767 19.4048H28.9927" stroke="#EF4444" stroke-width="3.18525" stroke-linecap="round" stroke-linejoin="round"/>
</svg>
