<svg width="110" height="110" viewBox="0 0 110 110" fill="none" xmlns="http://www.w3.org/2000/svg">
<g filter="url(#filter0_d_14_251)">
<path d="M14 102C10.6863 102 8 99.3137 8 96L8 14C8 10.6863 10.6863 8 14 8L96 8C99.3137 8 102 10.6863 102 14L102 96C102 99.3137 99.3137 102 96 102L14 102Z" fill="#EF4444"/>
</g>
<g clip-path="url(#clip0_14_251)">
<path d="M77.359 62.4531V64.6586H42.071V62.4531C42.071 57.5789 46.0189 53.6311 50.893 53.6311H68.537C73.4112 53.6311 77.359 57.5789 77.359 62.4531ZM61.9205 73.4806L55.304 69.0696H42.071V71.2751C42.071 76.1492 46.0189 80.0971 50.893 80.0971H68.537C73.4112 80.0971 77.359 76.1492 77.359 71.2751V69.0696H68.537L61.9205 73.4806ZM24.824 38.1925H63.707L64.0819 34.5314C64.3025 32.6567 63.707 30.7821 62.4499 29.3705C61.1927 27.959 59.4063 27.165 57.5095 27.165H31.0435C29.1688 27.1871 27.3603 28.0031 26.1032 29.3926C24.8461 30.8041 24.2506 32.6788 24.4711 34.5314L24.8461 38.1925H24.824ZM25.2651 42.6035L29.0365 80.0971H41.0565C38.9613 77.7592 37.66 74.6715 37.66 71.2751V62.4531C37.66 55.1529 43.5928 49.2201 50.893 49.2201H62.6042L63.2659 42.6035H25.2872H25.2651Z" fill="white"/>
</g>
<path d="M78.9553 59.0866V52.1576H72.3543V48.2626H78.9553V41.3336H83.3014V48.2626H89.9024V52.1576H83.3014V59.0866H78.9553Z" fill="white"/>
<defs>
<filter id="filter0_d_14_251" x="0" y="0" width="110" height="110" filterUnits="userSpaceOnUse" color-interpolation-filters="sRGB">
<feFlood flood-opacity="0" result="BackgroundImageFix"/>
<feColorMatrix in="SourceAlpha" type="matrix" values="0 0 0 0 0 0 0 0 0 0 0 0 0 0 0 0 0 0 127 0" result="hardAlpha"/>
<feOffset/>
<feGaussianBlur stdDeviation="4"/>
<feComposite in2="hardAlpha" operator="out"/>
<feColorMatrix type="matrix" values="0 0 0 0 0 0 0 0 0 0 0 0 0 0 0 0 0 0 0.25 0"/>
<feBlend mode="normal" in2="BackgroundImageFix" result="effect1_dropShadow_14_251"/>
<feBlend mode="normal" in="SourceGraphic" in2="effect1_dropShadow_14_251" result="shape"/>
</filter>
<clipPath id="clip0_14_251">
<rect width="52.932" height="52.932" fill="white" transform="translate(24.4272 27.165)"/>
</clipPath>
</defs>
</svg>
