<svg width="110" height="113" viewBox="0 0 110 113" fill="none" xmlns="http://www.w3.org/2000/svg">
<g filter="url(#filter0_d_38_425)">
<path d="M14 105C10.6863 105 8 102.314 8 99L8 17C8 13.6863 10.6863 11 14 11L96 11C99.3137 11 102 13.6863 102 17L102 99C102 102.314 99.3137 105 96 105L14 105Z" fill="#EF4444"/>
</g>
<path d="M78.897 38.31V31.381H72.296V27.486H78.897V20.557H83.243V27.486H89.844V31.381H83.243V38.31H78.897Z" fill="white"/>
<path d="M78.6922 86.1108V72.5451C78.6922 67.4282 78.6922 64.8724 76.9546 63.2825C75.2171 61.6926 72.4239 61.6926 66.8317 61.6926L54.9711 86.1108L43.1106 61.6926C37.5183 61.6926 34.7251 61.6926 32.9876 63.2825C31.25 64.8724 31.25 67.4282 31.25 72.5451V86.1108" stroke="white" stroke-width="4.5" stroke-linecap="round" stroke-linejoin="round"/>
<path d="M54.9711 67.1188L53.4886 77.9713L54.9711 82.041L56.4537 77.9713L54.9711 67.1188ZM54.9711 67.1188L52.006 61.6926H57.9363L54.9711 67.1188ZM65.3491 44.0572V41.3441C65.3491 40.0971 65.0807 38.8623 64.5591 37.7102C64.0376 36.558 63.2732 35.5112 62.3095 34.6294C61.3458 33.7477 60.2017 33.0482 58.9426 32.571C57.6835 32.0938 56.334 31.8481 54.9711 31.8481C53.6083 31.8481 52.2588 32.0938 50.9996 32.571C49.7405 33.0482 48.5965 33.7477 47.6328 34.6294C46.6691 35.5112 45.9047 36.558 45.3831 37.7102C44.8616 38.8623 44.5931 40.0971 44.5931 41.3441V44.0572C44.5931 45.3042 44.8616 46.5391 45.3831 47.6912C45.9047 48.8433 46.6691 49.8901 47.6328 50.7719C48.5965 51.6537 49.7405 52.3531 50.9996 52.8303C52.2588 53.3076 53.6083 53.5532 54.9711 53.5532C56.334 53.5532 57.6835 53.3076 58.9426 52.8303C60.2017 52.3531 61.3458 51.6537 62.3095 50.7719C63.2732 49.8901 64.0376 48.8433 64.5591 47.6912C65.0807 46.5391 65.3491 45.3042 65.3491 44.0572Z" stroke="white" stroke-width="4.5" stroke-linecap="round" stroke-linejoin="round"/>
<defs>
<filter id="filter0_d_38_425" x="0" y="3" width="110" height="110" filterUnits="userSpaceOnUse" color-interpolation-filters="sRGB">
<feFlood flood-opacity="0" result="BackgroundImageFix"/>
<feColorMatrix in="SourceAlpha" type="matrix" values="0 0 0 0 0 0 0 0 0 0 0 0 0 0 0 0 0 0 127 0" result="hardAlpha"/>
<feOffset/>
<feGaussianBlur stdDeviation="4"/>
<feComposite in2="hardAlpha" operator="out"/>
<feColorMatrix type="matrix" values="0 0 0 0 0 0 0 0 0 0 0 0 0 0 0 0 0 0 0.25 0"/>
<feBlend mode="normal" in2="BackgroundImageFix" result="effect1_dropShadow_38_425"/>
<feBlend mode="normal" in="SourceGraphic" in2="effect1_dropShadow_38_425" result="shape"/>
</filter>
</defs>
</svg>
