<svg width="128" height="128" viewBox="0 0 128 128" fill="none" xmlns="http://www.w3.org/2000/svg">
<g clip-path="url(#clip0_832_3063)">
<path d="M128.267 62C128.267 96.2417 100.508 124 66.2666 124C32.0249 124 4.2666 96.2417 4.2666 62C4.2666 27.7583 32.0249 0 66.2666 0C100.508 0 128.267 27.7583 128.267 62ZM59.0951 94.8285L105.095 48.8285C106.657 47.2665 106.657 44.7337 105.095 43.1717L99.4384 37.515C97.8764 35.9528 95.3436 35.9528 93.7813 37.515L56.2666 75.0295L38.7519 57.5148C37.1898 55.9528 34.6571 55.9528 33.0949 57.5148L27.4381 63.1715C25.8761 64.7335 25.8761 67.2663 27.4381 68.8282L53.4381 94.8282C55.0004 96.3905 57.5329 96.3905 59.0951 94.8285Z" fill="#00A490"/>
</g>
<defs>
<clipPath id="clip0_832_3063">
<rect width="128" height="128" fill="white"/>
</clipPath>
</defs>
</svg>
