<svg width="110" height="110" viewBox="0 0 110 110" fill="none" xmlns="http://www.w3.org/2000/svg">
<g filter="url(#filter0_d_39_434)">
<path d="M14 102C10.6863 102 8 99.3137 8 96L8 14C8 10.6863 10.6863 8 14 8L96 8C99.3137 8 102 10.6863 102 14L102 96C102 99.3137 99.3137 102 96 102L14 102Z" fill="#EF4444"/>
</g>
<path d="M78.6922 82.1108V68.5451C78.6922 63.4282 78.6922 60.8724 76.9546 59.2825C75.2171 57.6926 72.4239 57.6926 66.8317 57.6926L54.9711 82.1108L43.1106 57.6926C37.5183 57.6926 34.7251 57.6926 32.9876 59.2825C31.25 60.8724 31.25 63.4282 31.25 68.5451V82.1108" stroke="white" stroke-width="4.5" stroke-linecap="round" stroke-linejoin="round"/>
<path d="M54.9711 63.1188L53.4885 73.9713L54.9711 78.041L56.4537 73.9713L54.9711 63.1188ZM54.9711 63.1188L52.006 57.6926H57.9362L54.9711 63.1188ZM65.3491 40.0572V37.3441C65.3491 36.0971 65.0807 34.8623 64.5591 33.7102C64.0376 32.558 63.2731 31.5112 62.3094 30.6294C61.3458 29.7477 60.2017 29.0482 58.9426 28.571C57.6835 28.0938 56.334 27.8481 54.9711 27.8481C53.6082 27.8481 52.2587 28.0938 50.9996 28.571C49.7405 29.0482 48.5964 29.7477 47.6328 30.6294C46.6691 31.5112 45.9046 32.558 45.3831 33.7102C44.8616 34.8623 44.5931 36.0971 44.5931 37.3441V40.0572C44.5931 41.3042 44.8616 42.5391 45.3831 43.6912C45.9046 44.8433 46.6691 45.8901 47.6328 46.7719C48.5964 47.6537 49.7405 48.3531 50.9996 48.8303C52.2587 49.3076 53.6082 49.5532 54.9711 49.5532C56.334 49.5532 57.6835 49.3076 58.9426 48.8303C60.2017 48.3531 61.3458 47.6537 62.3094 46.7719C63.2731 45.8901 64.0376 44.8433 64.5591 43.6912C65.0807 42.5391 65.3491 41.3042 65.3491 40.0572Z" stroke="white" stroke-width="4.5" stroke-linecap="round" stroke-linejoin="round"/>
<path d="M94.1072 37.7482C94.65 39.2088 94.221 40.9129 92.931 41.9288L94.1072 37.7482ZM94.1072 37.7482L94.1418 37.5047L93.5468 36.749L90.7476 33.1937C94.1189 28.2824 93.5235 21.5128 89.0699 17.2744C84.1302 12.5736 76.3149 12.7668 71.6137 17.706C66.9124 22.6453 67.1058 30.4603 72.0455 35.1612C75.5291 38.4764 80.5647 39.4288 84.9512 37.757L87.7527 41.3136C89.0127 42.9133 91.3311 43.1889 92.931 41.9289L94.1072 37.7482ZM85.4909 26.84C85.1661 29.5449 82.7131 31.477 80.0067 31.1589C77.3008 30.8367 75.3683 28.3825 75.6898 25.677C76.0113 22.971 78.4658 21.0377 81.1724 21.3593C83.8786 21.6808 85.8116 24.1346 85.4909 26.84Z" fill="white" stroke="#EF4444" stroke-width="4.5"/>
<defs>
<filter id="filter0_d_39_434" x="0" y="0" width="110" height="110" filterUnits="userSpaceOnUse" color-interpolation-filters="sRGB">
<feFlood flood-opacity="0" result="BackgroundImageFix"/>
<feColorMatrix in="SourceAlpha" type="matrix" values="0 0 0 0 0 0 0 0 0 0 0 0 0 0 0 0 0 0 127 0" result="hardAlpha"/>
<feOffset/>
<feGaussianBlur stdDeviation="4"/>
<feComposite in2="hardAlpha" operator="out"/>
<feColorMatrix type="matrix" values="0 0 0 0 0 0 0 0 0 0 0 0 0 0 0 0 0 0 0.25 0"/>
<feBlend mode="normal" in2="BackgroundImageFix" result="effect1_dropShadow_39_434"/>
<feBlend mode="normal" in="SourceGraphic" in2="effect1_dropShadow_39_434" result="shape"/>
</filter>
</defs>
</svg>
