<svg width="38" height="38" viewBox="0 0 38 38" fill="none" xmlns="http://www.w3.org/2000/svg">
<path d="M3.24268 27.8384C3.24268 28.922 3.67312 29.9612 4.43933 30.7274C5.20553 31.4936 6.24473 31.924 7.3283 31.924H31.8421C32.9256 31.924 33.9648 31.4936 34.7311 30.7274C35.4973 29.9612 35.9277 28.922 35.9277 27.8384V16.6029H3.24268V27.8384ZM8.05788 22.2936C8.05788 21.7131 8.28848 21.1564 8.69894 20.7459C9.10941 20.3355 9.66612 20.1049 10.2466 20.1049H13.7486C14.3291 20.1049 14.8858 20.3355 15.2962 20.7459C15.7067 21.1564 15.9373 21.7131 15.9373 22.2936V23.7528C15.9373 24.3332 15.7067 24.89 15.2962 25.3004C14.8858 25.7109 14.3291 25.9415 13.7486 25.9415H10.2466C9.66612 25.9415 9.10941 25.7109 8.69894 25.3004C8.28848 24.89 8.05788 24.3332 8.05788 23.7528V22.2936ZM31.8421 6.24292H7.3283C6.24473 6.24292 5.20553 6.67337 4.43933 7.43957C3.67312 8.20578 3.24268 9.24497 3.24268 10.3285V12.2254H35.9277V10.3285C35.9277 9.24497 35.4973 8.20578 34.7311 7.43957C33.9648 6.67337 32.9256 6.24292 31.8421 6.24292Z" fill="#EF4444"/>
</svg>
