<svg width="110" height="110" viewBox="0 0 110 110" fill="none" xmlns="http://www.w3.org/2000/svg">
<g filter="url(#filter0_d_4_4313)">
<path d="M14 102C10.6863 102 8 99.3137 8 96L8 14C8 10.6863 10.6863 8 14 8L96 8C99.3137 8 102 10.6863 102 14L102 96C102 99.3137 99.3137 102 96 102L14 102Z" fill="#EF4444"/>
</g>
<path d="M55.348 43.0191L58.7063 46.4363L48.736 56.5838C47.8098 57.5263 46.5938 57.9976 45.3778 57.9976C44.1617 57.9976 42.9457 57.5263 42.0195 56.5838L35.6711 50.1241L39.0294 46.7069L45.3778 53.1667L55.348 43.0191ZM84 72.5H79.1526C79.2096 72.8988 79.25 73.2999 79.25 73.7083C79.25 78.3725 75.5213 82.1667 70.9375 82.1667C66.3537 82.1667 62.625 78.3725 62.625 73.7083C62.625 73.2999 62.6654 72.8988 62.7224 72.5H48.2776C48.3346 72.8988 48.375 73.2999 48.375 73.7083C48.375 78.3725 44.6462 82.1667 40.0625 82.1667C35.4788 82.1667 31.75 78.3725 31.75 73.7083C31.75 73.2999 31.7904 72.8988 31.8474 72.5H27V36.25C27 32.2528 30.1967 29 34.125 29H60.25C64.1782 29 67.375 32.2528 67.375 36.25V38.6667H72.125C78.6729 38.6667 84 44.0873 84 50.75V72.5ZM67.375 43.5V53.1667H79.25V50.75C79.25 46.7528 76.0532 43.5 72.125 43.5H67.375ZM43.4041 72.5H36.7209C36.5926 72.848 36.5 73.2492 36.5 73.7083C36.5 75.7069 38.0984 77.3333 40.0625 77.3333C42.0266 77.3333 43.625 75.7069 43.625 73.7083C43.625 73.2492 43.5324 72.848 43.4041 72.5ZM62.625 36.25C62.625 34.9184 61.561 33.8333 60.25 33.8333H34.125C32.814 33.8333 31.75 34.9184 31.75 36.25V67.6667H62.625V36.25ZM74.2791 72.5H67.5959C67.4676 72.848 67.375 73.2492 67.375 73.7083C67.375 75.7069 68.9734 77.3333 70.9375 77.3333C72.9016 77.3333 74.5 75.7069 74.5 73.7083C74.5 73.2492 74.4074 72.848 74.2791 72.5ZM79.25 67.6667V58H67.375V67.6667H79.25Z" fill="white"/>
<defs>
<filter id="filter0_d_4_4313" x="0" y="0" width="110" height="110" filterUnits="userSpaceOnUse" color-interpolation-filters="sRGB">
<feFlood flood-opacity="0" result="BackgroundImageFix"/>
<feColorMatrix in="SourceAlpha" type="matrix" values="0 0 0 0 0 0 0 0 0 0 0 0 0 0 0 0 0 0 127 0" result="hardAlpha"/>
<feOffset/>
<feGaussianBlur stdDeviation="4"/>
<feComposite in2="hardAlpha" operator="out"/>
<feColorMatrix type="matrix" values="0 0 0 0 0 0 0 0 0 0 0 0 0 0 0 0 0 0 0.25 0"/>
<feBlend mode="normal" in2="BackgroundImageFix" result="effect1_dropShadow_4_4313"/>
<feBlend mode="normal" in="SourceGraphic" in2="effect1_dropShadow_4_4313" result="shape"/>
</filter>
</defs>
</svg>
