<svg width="110" height="110" viewBox="0 0 110 110" fill="none" xmlns="http://www.w3.org/2000/svg">
<g filter="url(#filter0_d_29_282)">
<path d="M14 102C10.6863 102 8 99.3137 8 96L8 14C8 10.6863 10.6863 8 14 8L96 8C99.3137 8 102 10.6863 102 14L102 96C102 99.3137 99.3137 102 96 102L14 102Z" fill="#EF4444"/>
</g>
<path d="M52.875 63.5H40.125C38.4342 63.5 36.8127 64.1717 35.6172 65.3672C34.4217 66.5627 33.75 68.1842 33.75 69.875V74.125H38V69.875C38 69.3114 38.2239 68.7709 38.6224 68.3724C39.0209 67.9739 39.5614 67.75 40.125 67.75H52.875C53.4386 67.75 53.9791 67.9739 54.3776 68.3724C54.7761 68.7709 55 69.3114 55 69.875V74.125H59.25V69.875C59.25 68.1842 58.5784 66.5627 57.3828 65.3672C56.1873 64.1717 54.5658 63.5 52.875 63.5ZM46.5 61.375C48.1811 61.375 49.8245 60.8765 51.2223 59.9425C52.6202 59.0085 53.7096 57.681 54.353 56.1278C54.9963 54.5746 55.1646 52.8656 54.8367 51.2167C54.5087 49.5679 53.6992 48.0533 52.5104 46.8646C51.3217 45.6759 49.8071 44.8663 48.1583 44.5383C46.5094 44.2104 44.8004 44.3787 43.2472 45.022C41.694 45.6654 40.3665 46.7548 39.4325 48.1527C38.4985 49.5505 38 51.1939 38 52.875C38 55.1293 38.8955 57.2914 40.4896 58.8854C42.0837 60.4795 44.2457 61.375 46.5 61.375ZM46.5 48.625C47.3406 48.625 48.1623 48.8743 48.8612 49.3413C49.5601 49.8083 50.1048 50.472 50.4265 51.2486C50.7482 52.0252 50.8323 52.8797 50.6683 53.7041C50.5044 54.5286 50.0996 55.2858 49.5052 55.8802C48.9108 56.4746 48.1536 56.8794 47.3291 57.0433C46.5047 57.2073 45.6502 57.1232 44.8736 56.8015C44.097 56.4798 43.4333 55.9351 42.9663 55.2362C42.4993 54.5373 42.25 53.7156 42.25 52.875C42.25 51.7478 42.6978 50.6668 43.4948 49.8698C44.2918 49.0728 45.3728 48.625 46.5 48.625Z" fill="white"/>
<path d="M80.5 61.375V80.5H29.5V38H55V33.75H29.5C28.3728 33.75 27.2918 34.1978 26.4948 34.9948C25.6978 35.7918 25.25 36.8728 25.25 38V80.5C25.25 81.6272 25.6978 82.7082 26.4948 83.5052C27.2918 84.3022 28.3728 84.75 29.5 84.75H80.5C81.6272 84.75 82.7082 84.3022 83.5052 83.5052C84.3022 82.7082 84.75 81.6272 84.75 80.5V61.375H80.5Z" fill="white"/>
<path d="M63.5 61.375H76.25V65.625H63.5V61.375ZM67.75 69.875H76.25V74.125H67.75V69.875ZM89 42.25V38H84.5354C84.2597 36.6703 83.7317 35.4058 82.9799 34.2749L86.1461 31.1086L83.1414 28.1039L79.9751 31.2701C78.8442 30.5183 77.5797 29.9903 76.25 29.7146V25.25H72V29.7146C70.6703 29.9903 69.4058 30.5183 68.2749 31.2701L65.1086 28.1039L62.1039 31.1086L65.2701 34.2749C64.5183 35.4058 63.9903 36.6703 63.7146 38H59.25V42.25H63.7146C63.9903 43.5797 64.5183 44.8442 65.2701 45.9751L62.1039 49.1414L65.1086 52.1461L68.2749 48.9799C69.4058 49.7317 70.6703 50.2597 72 50.5354V55H76.25V50.5354C77.5797 50.2597 78.8442 49.7317 79.9751 48.9799L83.1414 52.1461L86.1461 49.1414L82.9799 45.9751C83.7317 44.8442 84.2597 43.5797 84.5354 42.25H89ZM74.125 46.5C72.8641 46.5 71.6316 46.1261 70.5832 45.4256C69.5349 44.7251 68.7178 43.7295 68.2353 42.5646C67.7528 41.3997 67.6265 40.1179 67.8725 38.8813C68.1185 37.6447 68.7256 36.5088 69.6172 35.6172C70.5088 34.7256 71.6447 34.1185 72.8813 33.8725C74.1179 33.6265 75.3997 33.7528 76.5646 34.2353C77.7295 34.7178 78.7251 35.5349 79.4256 36.5832C80.1261 37.6316 80.5 38.8641 80.5 40.125C80.4983 41.8152 79.8261 43.4358 78.6309 44.6309C77.4358 45.8261 75.8152 46.4983 74.125 46.5Z" fill="white"/>
<defs>
<filter id="filter0_d_29_282" x="0" y="0" width="110" height="110" filterUnits="userSpaceOnUse" color-interpolation-filters="sRGB">
<feFlood flood-opacity="0" result="BackgroundImageFix"/>
<feColorMatrix in="SourceAlpha" type="matrix" values="0 0 0 0 0 0 0 0 0 0 0 0 0 0 0 0 0 0 127 0" result="hardAlpha"/>
<feOffset/>
<feGaussianBlur stdDeviation="4"/>
<feComposite in2="hardAlpha" operator="out"/>
<feColorMatrix type="matrix" values="0 0 0 0 0 0 0 0 0 0 0 0 0 0 0 0 0 0 0.25 0"/>
<feBlend mode="normal" in2="BackgroundImageFix" result="effect1_dropShadow_29_282"/>
<feBlend mode="normal" in="SourceGraphic" in2="effect1_dropShadow_29_282" result="shape"/>
</filter>
</defs>
</svg>
