<svg width="12" height="13" viewBox="0 0 12 13" fill="none" xmlns="http://www.w3.org/2000/svg">
<path d="M5.93439 1.96064C7.49289 1.96064 7.67739 1.96637 8.29315 1.99464C8.86231 2.02061 9.17134 2.11572 9.37723 2.19556C9.64958 2.30136 9.84401 2.4278 10.0484 2.63215C10.2527 2.83651 10.3792 3.03093 10.485 3.30328C10.5648 3.50916 10.6599 3.81818 10.6859 4.38732C10.7138 5.00267 10.7199 5.18717 10.7199 6.746C10.7199 8.30445 10.7138 8.48894 10.6859 9.10468C10.6599 9.67382 10.5648 9.98284 10.485 10.1883C10.3792 10.4611 10.2527 10.6551 10.0484 10.8595C9.84401 11.0638 9.64958 11.1902 9.37723 11.2961C9.17134 11.3759 8.86231 11.471 8.29315 11.497C7.67777 11.5249 7.49327 11.531 5.93439 11.531C4.37551 11.531 4.19139 11.5252 3.57563 11.497C3.00647 11.471 2.69745 11.3759 2.49194 11.2961C2.2192 11.1902 2.02515 11.0638 1.82079 10.8595C1.61643 10.6551 1.48999 10.4607 1.38418 10.1883C1.30435 9.98284 1.20923 9.67382 1.18326 9.10468C1.15537 8.48932 1.14926 8.30483 1.14926 6.746C1.14926 5.18755 1.15537 5.00306 1.18326 4.38732C1.20923 3.81818 1.30435 3.50916 1.38418 3.30328C1.48999 3.03093 1.61643 2.83651 1.82079 2.63215C2.02515 2.4278 2.21958 2.30136 2.49194 2.19556C2.69745 2.11572 3.00685 2.02061 3.57563 1.99464C4.19139 1.96637 4.37589 1.96064 5.93439 1.96064ZM5.93439 0.908691C4.34915 0.908691 4.15052 0.915565 3.52788 0.943831C2.90639 0.972097 2.48239 1.07103 2.1111 1.21503C1.7272 1.36438 1.40175 1.56377 1.07706 1.88845C0.752377 2.21274 0.552984 2.53857 0.404009 2.92245C0.259619 3.29373 0.161067 3.7181 0.1328 4.33919C0.104151 4.9618 0.0976562 5.16043 0.0976562 6.74562C0.0976562 8.3308 0.104151 8.52943 0.1328 9.15204C0.161067 9.77351 0.260001 10.1975 0.404009 10.5688C0.552984 10.9527 0.752759 11.2781 1.07706 11.6028C1.40175 11.9275 1.7272 12.1269 2.1111 12.2762C2.48239 12.4202 2.90677 12.5191 3.52788 12.5474C4.15052 12.5757 4.34915 12.5825 5.93439 12.5825C7.51963 12.5825 7.71826 12.5757 8.3409 12.5474C8.96239 12.5191 9.38639 12.4202 9.75768 12.2762C10.1416 12.1272 10.467 11.9275 10.7917 11.6028C11.116 11.2781 11.3158 10.9527 11.4652 10.5688C11.6095 10.1975 11.7081 9.77313 11.7364 9.15204C11.7646 8.52943 11.7715 8.3308 11.7715 6.74562C11.7715 5.16043 11.765 4.9618 11.7364 4.33919C11.7081 3.71772 11.6092 3.29373 11.4652 2.92245C11.3158 2.53857 11.1164 2.21313 10.7917 1.88845C10.467 1.56377 10.1416 1.36438 9.75768 1.21503C9.38639 1.07103 8.96201 0.972097 8.3409 0.943831C7.71826 0.915565 7.51963 0.908691 5.93439 0.908691Z" fill="#F2941F"/>
<path d="M5.93396 3.74878C4.27844 3.74878 2.93652 5.09065 2.93652 6.74612C2.93652 8.40159 4.27844 9.74346 5.93396 9.74346C7.58949 9.74346 8.9314 8.40159 8.9314 6.74612C8.9314 5.09065 7.58949 3.74878 5.93396 3.74878ZM5.93396 8.69151C4.85944 8.69151 3.98813 7.82023 3.98813 6.74574C3.98813 5.67125 4.85906 4.79997 5.93396 4.79997C7.00849 4.79997 7.8798 5.67087 7.8798 6.74574C7.8798 7.82061 7.00849 8.69151 5.93396 8.69151Z" fill="#F2941F"/>
<path d="M9.75073 3.62998C9.75073 4.01692 9.43712 4.33052 9.05017 4.33052C8.66322 4.33052 8.34961 4.01692 8.34961 3.62998C8.34961 3.24304 8.66322 2.92944 9.05017 2.92944C9.43712 2.92983 9.75073 3.24342 9.75073 3.62998Z" fill="#F2941F"/>
</svg>
