<svg width="11" height="9" viewBox="0 0 11 9" fill="none" xmlns="http://www.w3.org/2000/svg">
<path d="M1.03746 8.63687C0.752161 8.63687 0.507925 8.53529 0.304755 8.33212C0.101585 8.12895 0 7.88471 0 7.59941V1.37462C0 1.08932 0.101585 0.845083 0.304755 0.641913C0.507925 0.438743 0.752161 0.337158 1.03746 0.337158H9.33718C9.62248 0.337158 9.86672 0.438743 10.0699 0.641913C10.2731 0.845083 10.3746 1.08932 10.3746 1.37462V7.59941C10.3746 7.88471 10.2731 8.12895 10.0699 8.33212C9.86672 8.53529 9.62248 8.63687 9.33718 8.63687H1.03746ZM5.18732 5.00575L1.03746 2.41209V7.59941H9.33718V2.41209L5.18732 5.00575ZM5.18732 3.96828L9.33718 1.37462H1.03746L5.18732 3.96828ZM1.03746 2.41209V1.37462V7.59941V2.41209Z" fill="#F2941F"/>
</svg>
