<svg width="10" height="12" viewBox="0 0 10 12" fill="none" xmlns="http://www.w3.org/2000/svg">
<path d="M4.92787 5.83574C5.24883 5.83574 5.5236 5.72145 5.75216 5.49289C5.98073 5.26432 6.09501 4.98955 6.09501 4.66859C6.09501 4.34762 5.98073 4.07286 5.75216 3.84429C5.5236 3.61572 5.24883 3.50144 4.92787 3.50144C4.6069 3.50144 4.33213 3.61572 4.10357 3.84429C3.875 4.07286 3.76072 4.34762 3.76072 4.66859C3.76072 4.98955 3.875 5.26432 4.10357 5.49289C4.33213 5.72145 4.6069 5.83574 4.92787 5.83574ZM4.92787 10.125C6.11446 9.03566 6.99469 8.04602 7.56854 7.15607C8.14238 6.26612 8.42931 5.47587 8.42931 4.7853C8.42931 3.72514 8.09132 2.85708 7.41535 2.18111C6.73937 1.50513 5.91021 1.16715 4.92787 1.16715C3.94552 1.16715 3.11636 1.50513 2.44038 2.18111C1.76441 2.85708 1.42642 3.72514 1.42642 4.7853C1.42642 5.47587 1.71335 6.26612 2.2872 7.15607C2.86104 8.04602 3.74127 9.03566 4.92787 10.125ZM4.92787 11.6715C3.36194 10.339 2.19236 9.10132 1.41913 7.95848C0.645895 6.81565 0.259277 5.75793 0.259277 4.7853C0.259277 3.32637 0.728568 2.16409 1.66715 1.29845C2.60573 0.432817 3.69263 0 4.92787 0C6.1631 0 7.25 0.432817 8.18858 1.29845C9.12716 2.16409 9.59645 3.32637 9.59645 4.7853C9.59645 5.75793 9.20984 6.81565 8.4366 7.95848C7.66337 9.10132 6.49379 10.339 4.92787 11.6715Z" fill="#F2941F"/>
</svg>
