<svg width="10" height="10" viewBox="0 0 10 10" fill="none" xmlns="http://www.w3.org/2000/svg">
<path d="M9.31106 9.33132C8.23037 9.33132 7.16265 9.09573 6.10789 8.62454C5.05314 8.15336 4.09348 7.4855 3.22893 6.62094C2.36438 5.75639 1.69651 4.79673 1.22533 3.74198C0.754146 2.68722 0.518555 1.6195 0.518555 0.538809C0.518555 0.38319 0.570428 0.253507 0.674174 0.14976C0.777921 0.0460138 0.907604 -0.00585938 1.06322 -0.00585938H3.16409C3.28513 -0.00585938 3.39319 0.0352069 3.4883 0.117339C3.5834 0.199472 3.63959 0.296734 3.65688 0.409126L3.99406 2.22469C4.01135 2.36302 4.00703 2.47973 3.98109 2.57483C3.95515 2.66993 3.9076 2.75207 3.83844 2.82123L2.58051 4.09212C2.75343 4.41201 2.95876 4.72109 3.19651 5.01936C3.43426 5.31763 3.69579 5.60509 3.98109 5.88175C4.2491 6.14976 4.53008 6.39832 4.82403 6.62743C5.11798 6.85653 5.42922 7.06619 5.75775 7.25639L6.97677 6.03737C7.05458 5.95956 7.15616 5.9012 7.28152 5.8623C7.40688 5.82339 7.53008 5.81258 7.65112 5.82988L9.44075 6.19299C9.56178 6.22757 9.66121 6.29025 9.73902 6.38103C9.81683 6.47181 9.85573 6.57339 9.85573 6.68578V8.78665C9.85573 8.94227 9.80386 9.07195 9.70011 9.1757C9.59637 9.27944 9.46668 9.33132 9.31106 9.33132ZM2.08772 3.10653L2.94363 2.25062L2.72317 1.0316H1.56899C1.61221 1.38607 1.67273 1.73622 1.75054 2.08204C1.82835 2.42786 1.94075 2.76936 2.08772 3.10653ZM6.73037 7.74918C7.06755 7.89616 7.41121 8.01287 7.76135 8.09933C8.11149 8.18578 8.4638 8.24198 8.81827 8.26792V7.12671L7.59925 6.88031L6.73037 7.74918Z" fill="#F2941F"/>
</svg>
